<svg width="30px" height="31px" viewBox="0 0 30 31" version="1.1" xmlns="http://www.w3.org/2000/svg" xmlns:xlink="http://www.w3.org/1999/xlink">
    <!-- Generator: Sketch 46.1 (44463) - http://www.bohemiancoding.com/sketch -->
    <desc>Created with Sketch.</desc>
    <defs></defs>
    <g id="Page-1" stroke="none" stroke-width="1" fill="none" fill-rule="evenodd">
        <g id="H5-1" transform="translate(-360.000000, -1216.000000)" fill="#6C4607">
            <g id="Group-4" transform="translate(0.000000, 175.000000)">
                <path d="M377.215099,1056.52649 L388.718895,1044.4515 C389.433213,1043.70172 389.433213,1042.48541 388.718895,1041.73563 C388.003815,1040.98504 386.848861,1040.98504 386.133781,1041.73563 L374.627698,1053.80982 L363.123902,1041.73563 C362.408822,1040.98504 361.250819,1040.98504 360.535738,1041.73563 C359.821421,1042.48541 359.821421,1043.70172 360.535738,1044.4515 L372.042584,1056.52649 L360.535738,1068.60148 C359.821421,1069.35126 359.821421,1070.56756 360.535738,1071.31735 C360.893279,1071.69184 361.360596,1071.87989 361.827914,1071.87989 C362.295995,1071.87989 362.766362,1071.69184 363.123902,1071.31735 L374.627698,1059.24316 L386.133781,1071.31735 C386.491321,1071.69184 386.958639,1071.87989 387.426719,1071.87989 C387.894037,1071.87989 388.361355,1071.69184 388.718895,1071.31735 C389.433213,1070.56756 389.433213,1069.35126 388.718895,1068.60148 L377.215099,1056.52649 Z" id="Page-1"></path>
            </g>
        </g>
    </g>
</svg>